HIERARCHY
ROOT Hips
{
  OFFSET 24.6153 100.728 -162.986
  CHANNELS 6 Xposition Yposition Zposition Zrotation Xrotation Yrotation
  JOINT RightUpLeg
  {
    OFFSET -8.9458 -8.66707 0.101652
    CHANNELS 3 Zrotation Xrotation Yrotation
    JOINT RightLeg
    {
      OFFSET 0 -44.4227 1.3727
      CHANNELS 3 Zrotation Xrotation Yrotation
      JOINT RightFoot
      {
        OFFSET 0.253549 -42.0924 -1.46059
        CHANNELS 3 Zrotation Xrotation Yrotation
        JOINT RightToes
        {
          OFFSET 0.04 -4.41509 8.4991
          CHANNELS 3 Zrotation Xrotation Yrotation
          End Site
          {
            OFFSET -0.08 -0.137448 9.77979
          }
        }
      }
    }
  }
  JOINT Spine
  {
    OFFSET 0 11.8905 0
    CHANNELS 3 Zrotation Xrotation Yrotation
    JOINT Spine1
    {
      OFFSET 0 25.6574 0.127663
      CHANNELS 3 Zrotation Xrotation Yrotation
      JOINT HEad
      {
        OFFSET 0 8.73416 0.011341
        CHANNELS 3 Zrotation Xrotation Yrotation
        End Site
        {
          OFFSET -0.29 12.7742 2.51395
        }
      }
      JOINT LeftShoulder1
      {
        OFFSET 8.99 -0.362252 -0.22
        CHANNELS 3 Zrotation Xrotation Yrotation
        JOINT LeftArm
        {
          OFFSET 10.2827 -0.00338 0.322123
          CHANNELS 3 Zrotation Xrotation Yrotation
          JOINT LeftForeArm
          {
            OFFSET 32.7669 0.099144 -1.42434
            CHANNELS 3 Zrotation Xrotation Yrotation
            JOINT LeftHand
            {
              OFFSET 27.5643 0.085362 1.02216
              CHANNELS 3 Zrotation Xrotation Yrotation
              End Site
              {
                OFFSET 16.7443 -0.6 1.50291
              }
            }
          }
        }
      }
      JOINT RightShoulder
      {
        OFFSET -8.99 -0.362252 -0.22
        CHANNELS 3 Zrotation Xrotation Yrotation
        JOINT RightArm
        {
          OFFSET -10.2827 -0.00338 0.322123
          CHANNELS 3 Zrotation Xrotation Yrotation
          JOINT RightForeArm
          {
            OFFSET -32.8971 0.099144 -1.42434
            CHANNELS 3 Zrotation Xrotation Yrotation
            JOINT RightHand
            {
              OFFSET -27.4921 0.085362 1.02216
              CHANNELS 3 Zrotation Xrotation Yrotation
              End Site
              {
                OFFSET -16.6312 -0.6 1.50291
              }
            }
          }
        }
      }
    }
  }
  JOINT LeftUpLeg
  {
    OFFSET 8.9458 -8.66707 0.101652
    CHANNELS 3 Zrotation Xrotation Yrotation
    JOINT LeftLeg
    {
      OFFSET 0 -44.4227 1.3727
      CHANNELS 3 Zrotation Xrotation Yrotation
      JOINT LeftFoot
      {
        OFFSET -0.253549 -42.0924 -1.46059
        CHANNELS 3 Zrotation Xrotation Yrotation
        JOINT LeftToes
        {
          OFFSET -0.04 -4.41509 8.4991
          CHANNELS 3 Zrotation Xrotation Yrotation
          End Site
          {
            OFFSET 0.08 -0.047448 9.77979
          }
        }
      }
    }
  }
}
MOTION
Frames:	12
Frame Time:	0.0166667
27.3048 100.094 14.8263 1.53274 -2.2097 10.8789 -1.19381 -18.1207 7.51325 4.46689 16.4508 -33.6715 13.3489 3.4371 -0.906839 11.8543 6.86066 -0.675356 -3.2738 1.10114 0.565091 1.84584 5.89527 -0.11199 2.96734 5.10587 3.45417 -2.98177e-016 7.95139e-016 -0 -91.0896 -27.5767 -14.587 -20.5173 16.1015 -21.6375 0.368473 9.90896 -0.00117927 -2.78422 0.107592 -1.71221 81.0849 -20.2316 5.17792 24.8916 15.6392 16.4155 -0.369625 9.91382 0.00119886 0.158794 -2.685 10.5912 14.4539 53.6369 -13.5198 -0.129885 13.4939 0.0436194 28.234 7.43519 -36.3611 
27.1327 100.437 16.4903 1.32294 -1.97471 11.046 -0.774078 -17.1625 7.04536 4.41104 16.1457 -33.2985 13.3582 2.55831 -0.808129 11.666 6.65394 -0.637671 -2.85565 1.24919 0.490968 1.65803 5.47847 -0.11132 3.51584 5.10392 3.41517 -9.93923e-017 7.95139e-016 -1.59028e-015 -90.5511 -28.4476 -13.7443 -20.298 15.6659 -19.4515 0.368473 9.90896 -0.00117927 -2.49206 0.111314 -1.74091 81.0115 -19.9628 5.05528 25.0467 15.9086 17.4452 -0.369625 9.91382 0.00119886 0.356838 -5.28374 9.89765 16.2883 56.81 -13.169 -0.0599887 15.2655 0.0251579 25.2236 11.5915 -31.4632 
26.9995 100.83 18.1398 1.28182 -1.66022 11.1619 -0.554344 -16.0838 6.66639 4.30592 15.4892 -32.8986 13.3612 1.8505 -0.728465 11.6349 6.49059 -0.625892 -2.63661 1.38246 0.422245 1.40652 4.99315 -0.109661 3.8527 5.02683 3.47427 -2.98177e-016 7.95139e-016 3.18055e-015 -90.0985 -29.5006 -13.0828 -20.0581 15.2182 -17.1774 0.368473 9.90896 -0.00117927 -2.385 0.122988 -1.56857 81.0092 -19.6579 4.91943 25.1908 16.217 18.6456 -0.369625 9.91382 0.00119886 0.179412 -7.99779 8.71116 17.0599 59.9277 -11.104 0.422811 15.6134 -0.0304368 19.817 15.5348 -24.5989 
26.9219 101.228 19.7862 1.5127 -1.37114 11.0139 -0.567042 -14.8612 6.71631 4.16916 14.6652 -32.5912 13.2039 1.37237 -0.666077 11.3683 6.42647 -0.585566 -2.65268 1.49482 0.376554 1.11283 4.61968 -0.107763 3.78119 4.89449 3.76564 9.93923e-017 0 -3.18055e-015 -89.8229 -30.9546 -12.6958 -19.8505 14.751 -14.7101 0.368473 9.90896 -0.00117927 -2.7739 0.151979 -0.9681 81.391 -19.357 4.94924 25.1929 16.5121 19.8091 -0.369625 9.91382 0.00119886 -0.293639 -10.5215 7.42836 16.77 62.4497 -7.30772 1.08568 15.2628 -0.121389 15.3188 16.0524 -19.0739 
26.8659 101.601 21.3963 1.78216 -1.11563 10.7469 -0.593356 -13.6015 6.9762 4.00887 13.7778 -32.4035 13.053 0.958942 -0.611983 11.0756 6.41336 -0.544133 -2.66262 1.6032 0.333201 0.83386 4.37167 -0.105192 3.5438 4.69167 4.17832 -1.98785e-016 -7.95139e-016 1.59028e-015 -89.6149 -32.616 -12.3798 -19.6363 14.3174 -12.4391 0.368473 9.90896 -0.00117927 -3.40799 0.182624 -0.159508 82.0181 -19.0415 5.15532 25.0904 16.7753 20.8986 -0.369625 9.91382 0.00119886 -0.869101 -12.9712 6.29037 15.7532 64.3714 -3.38662 1.78659 14.2457 -0.210166 11.5865 14.7704 -14.3694 
26.7968 101.899 22.9277 1.83749 -0.945334 10.4206 -0.353322 -12.4297 7.38477 3.84821 13.018 -32.4541 13.0413 0.424435 -0.553939 10.8933 6.41301 -0.518806 -2.37402 1.73608 0.275863 0.664146 4.34808 -0.102143 3.32271 4.39863 4.66515 9.93923e-017 -1.59028e-015 -0 -89.395 -34.4277 -11.9552 -19.4137 14.0035 -10.7611 0.368473 9.90896 -0.00117927 -4.16721 0.202087 0.752475 82.9119 -18.7248 5.63045 24.8507 16.9685 21.7954 -0.369625 9.91382 0.00119886 -1.15533 -15.3911 5.84434 15.5227 65.7561 -2.43802 2.27179 12.7697 -0.252988 8.94067 12.6073 -11.2015 
26.7344 102.143 24.4194 1.82921 -0.836921 10.0779 -0.0240688 -11.2604 7.8177 3.62856 12.3226 -32.5549 13.1222 -0.110073 -0.500451 10.6466 6.45143 -0.485841 -1.97571 1.85259 0.209032 0.512205 4.47317 -0.0974716 3.10472 4.04939 5.16896 1.98785e-016 7.95139e-016 3.18055e-015 -89.0968 -36.1949 -11.3946 -19.2188 13.7789 -9.52775 0.368473 9.90896 -0.00117927 -4.96698 0.211196 1.64909 83.8954 -18.3478 6.30414 24.5759 17.1164 22.5305 -0.369625 9.91382 0.00119886 -1.37412 -17.6843 5.63865 15.5545 66.568 -2.73371 2.65742 11.0328 -0.270861 7.12503 9.77639 -9.03549 
26.6829 102.337 25.903 1.8277 -0.807517 9.80121 0.343187 -10.0077 8.13778 3.27784 11.6777 -32.5824 13.3261 -0.567179 -0.45898 9.79198 6.65605 -0.375629 -1.54896 1.90253 0.127343 0.300579 4.7359 -0.0895323 2.96002 3.66223 5.60467 -1.98785e-016 -1.59028e-015 -0 -88.6019 -37.6759 -10.5979 -19.0419 13.6247 -8.70372 0.368473 9.90896 -0.00117927 -5.66801 0.204546 2.36169 84.776 -17.8365 7.14312 24.3717 17.2286 23.0833 -0.369625 9.91382 0.00119886 -1.71936 -19.7485 5.4141 15.4282 66.6916 -3.484 2.98982 9.27342 -0.269263 5.97287 6.79626 -7.69139 
26.6546 102.491 27.3583 1.81785 -0.788021 9.53256 0.699994 -8.79505 8.33576 2.89529 11.1068 -32.4707 13.5531 -1.00162 -0.420329 9.57209 6.68426 -0.342929 -1.12476 1.94231 0.0440526 0.0816326 5.04111 -0.0800186 2.81036 3.26476 6.00965 0 0 -1.59028e-015 -87.9774 -38.9409 -9.57085 -18.9792 13.5606 -8.35611 0.368473 9.90896 -0.00117927 -6.31286 0.188214 2.93521 85.6091 -17.2487 8.12588 24.1882 17.3094 23.4932 -0.369625 9.91382 0.00119886 -2.09598 -21.6571 5.0957 14.68 66.1772 -3.4836 3.22873 7.5777 -0.251211 4.9882 3.57169 -6.61339 
26.6783 102.624 28.7588 1.81766 -0.71472 9.22176 0.959427 -7.71319 8.34443 2.5762 10.5973 -32.0602 13.6826 -1.42921 -0.378414 11.8428 6.03795 -0.618478 -0.786113 2.0266 -0.0198603 -0.0845352 5.30828 -0.0695329 2.54357 2.86717 6.40162 1.98785e-016 2.38542e-015 1.59028e-015 -87.2916 -39.9487 -8.25534 -19.1536 13.6152 -8.66713 0.368473 9.90896 -0.00117927 -6.95175 0.161323 3.31001 86.4283 -16.5718 9.27846 24.0081 17.3559 23.7581 -0.369625 9.91382 0.00119886 -2.52592 -23.4554 4.41096 12.6245 65.0113 -0.817438 3.31311 6.09853 -0.216008 3.86607 -0.109968 -5.31051 
26.7096 102.712 30.1546 1.8045 -0.587423 8.92811 1.21053 -6.7709 8.19784 2.2745 10.2337 -31.5081 13.8069 -1.88935 -0.331396 14.2113 5.31103 -0.903864 -0.457483 2.11049 -0.0929426 -0.298282 5.48243 -0.0597157 2.328 2.53952 6.7543 -1.98785e-016 -7.95139e-016 -0 -86.4536 -40.7782 -6.76517 -19.4485 13.723 -9.26237 0.368473 9.90896 -0.00117927 -7.42423 0.139281 3.63119 87.1149 -15.9447 10.4283 23.8329 17.3934 23.9841 -0.369625 9.91382 0.00119886 -2.9566 -25.1262 3.65949 10.3808 63.1619 2.37465 3.34811 4.87374 -0.178888 2.39641 -3.50587 -3.46252 
26.6967 102.733 31.5973 1.77366 -0.350026 8.71614 1.50159 -6.03378 7.90241 1.95001 10.0955 -30.9687 13.9794 -2.38632 -0.281077 14.2572 5.00391 -0.892062 -0.0810446 2.1688 -0.219183 -0.723687 5.41824 -0.0525777 2.36882 2.39892 7.04967 -1.98785e-016 0 -0 -85.2998 -41.5093 -5.14949 -19.8024 13.8256 -9.81012 0.368473 9.90896 -0.00117927 -7.46878 0.145508 4.04626 87.5248 -15.5428 11.3839 23.662 17.4514 24.2984 -0.369625 9.91382 0.00119886 -3.30623 -26.7039 3.05199 8.47887 60.6531 4.80863 3.47155 4.06067 -0.160194 -0.458597 -5.94195 0.396474 
